<svg width="23" height="23" viewBox="0 0 23 23" fill="none" xmlns="http://www.w3.org/2000/svg">
<path d="M16.5791 6.03749C16.2054 5.66374 15.6016 5.66374 15.2279 6.03749L9.82286 11.4425L11.1741 12.7937L16.5791 7.37916C16.9433 7.01499 16.9433 6.40166 16.5791 6.03749V6.03749ZM20.6425 6.02791L11.1741 15.4962L7.83912 12.1708C7.46537 11.7971 6.86161 11.7971 6.48786 12.1708C6.11411 12.5446 6.11411 13.1483 6.48786 13.5221L10.4937 17.5279C10.8674 17.9017 11.4712 17.9017 11.8449 17.5279L21.9937 7.38874C22.3675 7.01499 22.3675 6.41124 21.9937 6.03749H21.9841C21.6199 5.65416 21.0162 5.65416 20.6425 6.02791ZM1.07328 13.5317L5.07912 17.5375C5.45287 17.9112 6.05661 17.9112 6.43036 17.5375L7.1012 16.8667L2.42453 12.1708C2.05078 11.7971 1.44703 11.7971 1.07328 12.1708C0.699531 12.5446 0.699531 13.1579 1.07328 13.5317V13.5317Z" fill="#2E2E2E"/>
</svg>
