<svg width="18" height="6" viewBox="0 0 18 6" fill="none" xmlns="http://www.w3.org/2000/svg">
<path d="M5 1.25C5 1.66 4.66 2 4.25 2C3.92 2 3.65 1.79 3.54 1.5H1.5V4.5H3.54C3.64 4.21 3.92 4 4.25 4C4.66 4 5 4.34 5 4.75V5C5 5.55 4.55 6 4 6H1C0.45 6 0 5.55 0 5V1C0 0.45 0.45 0 1 0H4C4.55 0 5 0.45 5 1V1.25ZM10.04 1.5C10.14 1.79 10.42 2 10.75 2C11.16 2 11.5 1.66 11.5 1.25V1C11.5 0.45 11.05 0 10.5 0H7.5C6.95 0 6.5 0.45 6.5 1V2.5C6.5 3.05 6.95 3.5 7.5 3.5H10V4.5H7.96C7.86 4.21 7.58 4 7.25 4C6.84 4 6.5 4.34 6.5 4.75V5C6.5 5.55 6.95 6 7.5 6H10.5C11.05 6 11.5 5.55 11.5 5V3.5C11.5 2.95 11.05 2.5 10.5 2.5H8V1.5H10.04ZM16.54 1.5C16.64 1.79 16.92 2 17.25 2C17.66 2 18 1.66 18 1.25V1C18 0.45 17.55 0 17 0H14C13.45 0 13 0.45 13 1V2.5C13 3.05 13.45 3.5 14 3.5H16.5V4.5H14.46C14.36 4.21 14.08 4 13.75 4C13.34 4 13 4.34 13 4.75V5C13 5.55 13.45 6 14 6H17C17.55 6 18 5.55 18 5V3.5C18 2.95 17.55 2.5 17 2.5H14.5V1.5H16.54Z" fill="#404040"/>
</svg>
