<svg width="40" height="40" viewBox="0 0 40 40" fill="none" xmlns="http://www.w3.org/2000/svg">
<circle cx="20" cy="20" r="19" stroke="#0E0E0E" stroke-width="2"/>
<path d="M22.1002 14.8028L21.2512 13.9755V15.1609V28.7807C21.2512 29.1631 20.9243 29.5 20.5 29.5C20.0757 29.5 19.7488 29.1631 19.7488 28.7807V15.1609V13.9789L18.9005 14.8021L12.782 20.7402L12.7813 20.7409C12.4875 21.0272 12.0088 21.0272 11.7149 20.7409C11.4285 20.4617 11.4284 20.0175 11.7146 19.7382C11.7147 19.7381 11.7148 19.738 11.7149 19.7378L19.9725 11.7153L19.9731 11.7147C20.2669 11.4284 20.7456 11.4284 21.0394 11.7147L29.2851 19.75C29.5716 20.0293 29.5716 20.4738 29.2851 20.7531C28.9912 21.0394 28.5 21.0394 28.2062 20.7531L22.1002 14.8028Z" fill="#0E0E0E" stroke="#0E0E0E"/>
</svg>
