<svg width="20" height="12" viewBox="0 0 20 12" fill="none" xmlns="http://www.w3.org/2000/svg">
<path d="M6.69998 9.89997L2.79998 5.99997L6.69998 2.09997C7.08998 1.70997 7.08998 1.08997 6.69998 0.699971C6.30998 0.309971 5.68998 0.309971 5.29998 0.699971L0.70998 5.28997C0.31998 5.67997 0.31998 6.30997 0.70998 6.69997L5.29998 11.3C5.68998 11.69 6.30998 11.69 6.69998 11.3C7.08998 10.91 7.08998 10.29 6.69998 9.89997V9.89997ZM13.3 9.89997L17.2 5.99997L13.3 2.09997C12.91 1.70997 12.91 1.08997 13.3 0.699971C13.69 0.309971 14.31 0.309971 14.7 0.699971L19.29 5.28997C19.68 5.67997 19.68 6.30997 19.29 6.69997L14.7 11.3C14.31 11.69 13.69 11.69 13.3 11.3C12.91 10.91 12.91 10.29 13.3 9.89997V9.89997Z" fill="#404040"/>
</svg>
