<svg width="25" height="25" viewBox="0 0 25 25" fill="none" xmlns="http://www.w3.org/2000/svg">
<path d="M15.625 20.8333H5.20833V7.29167C5.20833 6.71875 4.73958 6.25 4.16667 6.25C3.59375 6.25 3.125 6.71875 3.125 7.29167V20.8333C3.125 21.9792 4.0625 22.9167 5.20833 22.9167H15.625C16.1979 22.9167 16.6667 22.4479 16.6667 21.875C16.6667 21.3021 16.1979 20.8333 15.625 20.8333ZM20.8333 16.6667V4.16667C20.8333 3.02083 19.8958 2.08333 18.75 2.08333H9.375C8.22917 2.08333 7.29167 3.02083 7.29167 4.16667V16.6667C7.29167 17.8125 8.22917 18.75 9.375 18.75H18.75C19.8958 18.75 20.8333 17.8125 20.8333 16.6667ZM18.75 16.6667H9.375V4.16667H18.75V16.6667Z" fill="#717171"/>
</svg>
