<svg width="30" height="30" viewBox="0 0 30 30" fill="none" xmlns="http://www.w3.org/2000/svg">
<path d="M15 14.2857C15 22.57 15 21.1905 15 30C23.2843 30 30 23.2843 30 15C30 6.71573 23.2843 0 15 0C15 8.45238 15 6.00144 15 14.2857Z" fill="#33A9DC"/>
<path d="M15.119 14.2857C15.119 22.57 15.2381 21.5476 15.119 30C6.83478 30 0 23.2843 0 15C0 6.71573 6.83478 0 15.119 0C15.119 8.45238 15.119 6.00144 15.119 14.2857Z" fill="#1572B6"/>
<circle cx="15" cy="15" r="14" stroke="#1572B6" stroke-width="2"/>
<path d="M15.2045 12.8221H18.8579L19.1102 9.99494H15.2045V7.23401H22.1277L22.0614 7.9748L21.3827 15.5831H15.2045V12.8221Z" fill="white"/>
<path d="M15.2208 19.9925L15.2086 19.9961L12.1339 19.1659L11.9373 16.9639H9.16614L9.5528 21.299L15.2082 22.8686L15.2208 22.865V19.9925V19.9925Z" fill="#EBEBEB"/>
<path d="M18.6232 15.4663L18.2906 19.1637L15.2113 19.9949V22.8674L20.8713 21.2988L20.9128 20.8323L21.3931 15.4663H18.6232Z" fill="white"/>
<path d="M15.2139 7.23401V9.99494H8.54498L8.48969 9.37453L8.36393 7.9748L8.29785 7.23401H15.2139V7.23401ZM15.2045 12.8225V15.5835H12.1685L12.1132 14.9631L11.9872 13.5633L11.9213 12.8225H15.2045V12.8225Z" fill="#EBEBEB"/>
</svg>
