<svg width="23" height="23" viewBox="0 0 23 23" fill="none" xmlns="http://www.w3.org/2000/svg">
<path d="M1.58455 6.06383C2.05823 6.52744 2.80403 6.54759 3.30795 6.1243C3.68085 5.80179 4.00336 5.6103 4.18477 5.69093C4.68869 5.8925 4.18477 6.729 3.88242 7.22284C3.63046 7.64614 1 11.1433 1 13.5823C1 14.8723 1.48376 15.9407 2.3505 16.5857C3.10638 17.1501 4.10414 17.3214 5.0112 17.0493C6.08959 16.7368 6.97648 15.6383 8.09518 14.2576C9.31467 12.7559 10.9474 10.7906 12.2072 10.7906C13.8499 10.7906 13.8701 11.8085 13.981 12.5946C10.1713 13.2396 8.55879 16.2934 8.55879 18.0067C8.55879 19.72 10.0101 21.1209 11.794 21.1209C13.4367 21.1209 16.1176 19.7805 16.5207 14.9731H17.7402C18.4356 14.9731 19 14.4087 19 13.7133C19 13.0179 18.4356 12.4535 17.7402 12.4535H16.5106C16.3595 10.7906 15.4121 8.22061 12.449 8.22061C10.1814 8.22061 8.23628 10.1456 7.47032 11.0829C6.88578 11.8186 5.39418 13.5823 5.16237 13.8242C4.91041 14.1265 4.47704 14.6708 4.04367 14.6708C3.59015 14.6708 3.31803 13.8343 3.68085 12.7357C4.03359 11.6372 5.09183 9.8533 5.54535 9.18813C6.33147 8.03919 6.85554 7.25308 6.85554 5.88242C6.85554 3.69541 5.20269 3 4.32587 3C3.22732 3 2.26988 3.63494 1.6047 4.22956C1.07055 4.71333 1.07055 5.55991 1.58455 6.06383ZM11.8242 18.6719C11.5118 18.6719 11.0784 18.4099 11.0784 17.9462C11.0784 17.3415 11.8141 15.729 13.9709 15.1646C13.6685 17.8757 12.5297 18.6719 11.8242 18.6719Z" fill="#404040"/>
</svg>
