<svg width="30" height="30" viewBox="0 0 30 30" fill="none" xmlns="http://www.w3.org/2000/svg">
<path d="M14.9981 1.27344C7.27903 1.27344 1.01929 7.57467 1.01929 15.348C1.01929 21.5652 5.02487 26.8395 10.5821 28.7021C11.281 28.8322 11.5363 28.3977 11.5363 28.0244C11.5363 27.6896 11.5243 26.8046 11.5169 25.6304C7.62866 26.4805 6.80747 23.7433 6.80747 23.7433C6.17302 22.1169 5.25538 21.6843 5.25538 21.6843C3.98483 20.8117 5.34989 20.8294 5.34989 20.8294C6.75309 20.9291 7.49056 22.2801 7.49056 22.2801C8.73831 24.4302 10.764 23.8097 11.5608 23.4489C11.6865 22.5395 12.0482 21.9193 12.4487 21.5671C9.34475 21.2112 6.08015 20.0037 6.08015 14.6121C6.08015 13.0752 6.62565 11.819 7.52015 10.8341C7.37513 10.4783 6.89636 9.04654 7.65661 7.11019C7.65661 7.11019 8.83112 6.73197 11.5011 8.55242C12.6162 8.24041 13.8116 8.08473 15.0016 8.07945C16.1882 8.08666 17.385 8.24041 18.5019 8.55436C21.1707 6.73361 22.3432 7.11213 22.3432 7.11213C23.1051 9.05023 22.6264 10.4802 22.4831 10.8357C23.3794 11.8207 23.9196 13.0769 23.9196 14.6139C23.9196 20.0197 20.6516 21.2094 17.5376 21.558C18.0391 21.9929 18.4863 22.8511 18.4863 24.1637C18.4863 26.046 18.4689 27.5633 18.4689 28.0244C18.4689 28.4009 18.7204 28.839 19.4299 28.7005C24.9786 26.8358 28.9806 21.5635 28.9806 15.348C28.9806 7.57461 22.7209 1.27344 14.9981 1.27344Z" fill="#6879D9"/>
</svg>
