<svg width="30" height="30" viewBox="0 0 30 30" fill="none" xmlns="http://www.w3.org/2000/svg">
<path d="M15 14.2857C15 22.57 15 21.1905 15 30C23.2843 30 30 23.2843 30 15C30 6.71573 23.2843 0 15 0C15 8.45238 15 6.00144 15 14.2857Z" fill="#F16529"/>
<path d="M15.119 14.2857C15.119 22.57 15.2381 21.5476 15.119 30C6.83478 30 0 23.2843 0 15C0 6.71573 6.83478 0 15.119 0C15.119 8.45238 15.119 6.00144 15.119 14.2857Z" fill="#E44D26"/>
<circle cx="15" cy="15" r="14" stroke="#E44D26" stroke-width="2"/>
<path d="M15 12.7187H11.306L11.0508 9.82529H15V7H8L8.06694 7.75796L8.75292 15.5442H15V12.7187ZM15 20.0567L14.9876 20.0602L11.8788 19.2102L11.6802 16.9571H8.87766L9.26873 21.3933L14.9872 23L15 22.9965V20.0567Z" fill="#EBEBEB"/>
<path d="M15 12.7192V15.5449H18.4408L18.1166 19.2095L15 20.0601V23L20.7286 21.3945L20.7706 20.9171L21.4272 13.478L21.4953 12.7192H20.7424H15ZM15 7V9.82551H21.7497L21.8057 9.19068L21.9332 7.75801L22 7H15Z" fill="white"/>
</svg>
