<svg width="30" height="30" viewBox="0 0 30 30" fill="none" xmlns="http://www.w3.org/2000/svg">
<circle cx="15" cy="15" r="15" fill="#F0DB4F"/>
<path d="M24.618 17.2354C24.4031 15.8969 23.5303 14.7726 20.9449 13.7242C20.0468 13.3115 19.0455 13.0159 18.7472 12.3353C18.6412 11.9392 18.6272 11.7161 18.6942 11.4763C18.8866 10.6982 19.8155 10.4556 20.5516 10.6787C21.0258 10.8376 21.4746 11.203 21.7453 11.7859C23.0114 10.9661 23.0088 10.9715 23.8929 10.408C23.5692 9.90624 23.3965 9.67468 23.1846 9.45999C22.4231 8.60945 21.3855 8.1714 19.7262 8.20491L18.8618 8.31671C18.0335 8.52601 17.2441 8.96077 16.7813 9.54366C15.3923 11.1196 15.7884 13.8777 17.4785 15.0128C19.1435 16.2625 21.5895 16.5468 21.9019 17.7154C22.2059 19.146 20.8505 19.6091 19.5033 19.4446C18.5105 19.2381 17.9583 18.7335 17.3613 17.8159C16.2626 18.4518 16.2626 18.4518 15.1329 19.1015C15.4008 19.6872 15.6823 19.9523 16.1313 20.4597C18.2566 22.6155 23.5751 22.5095 24.529 19.2466C24.5677 19.1345 24.8245 18.3873 24.618 17.2354V17.2354ZM13.6294 8.37765H10.8851L10.8738 15.4726C10.8738 16.9816 10.9519 18.3648 10.7065 18.7888C10.305 19.6227 9.26461 19.5194 8.79047 19.3576C8.30789 19.1205 8.0625 18.7832 7.7782 18.3065C7.70016 18.1696 7.64156 18.0637 7.62188 18.0555L5.39062 19.4219C5.76164 20.1834 6.3082 20.8443 7.00828 21.2737C8.05406 21.9013 9.45961 22.0937 10.9296 21.7562C11.8863 21.4776 12.7118 20.9003 13.144 20.0216C13.7688 18.8697 13.6348 17.4754 13.6291 15.9332C13.6432 13.4172 13.6294 10.9016 13.6294 8.37765V8.37765Z" fill="#323330"/>
</svg>
