<svg width="30" height="27" viewBox="0 0 30 27" fill="none" xmlns="http://www.w3.org/2000/svg">
<path d="M15.0001 16.1261C16.5087 16.1261 17.7317 14.9031 17.7317 13.3945C17.7317 11.8858 16.5087 10.6628 15.0001 10.6628C13.4914 10.6628 12.2684 11.8858 12.2684 13.3945C12.2684 14.9031 13.4914 16.1261 15.0001 16.1261Z" fill="#61DAFB"/>
<path d="M25.3754 8.88978C24.8482 8.69808 24.2971 8.50639 23.722 8.33866C23.8658 7.76358 23.9856 7.1885 24.0815 6.63738C24.5847 3.47444 24.0335 1.24601 22.5 0.383386C22.0447 0.119808 21.5415 0 20.9665 0C19.2891 0 17.1565 1.24601 15 3.33067C12.8435 1.24601 10.7109 0 9.03355 0C8.45847 0 7.95527 0.119808 7.5 0.383386C5.96645 1.26997 5.41534 3.4984 5.91853 6.63738C6.01438 7.1885 6.13419 7.76358 6.27796 8.33866C5.70288 8.50639 5.15176 8.67412 4.6246 8.88978C1.62939 10.0399 0 11.6214 0 13.3946C0 15.1677 1.65336 16.7492 4.6246 17.8994C5.15176 18.0911 5.70288 18.2827 6.27796 18.4505C6.13419 19.0256 6.01438 19.6006 5.91853 20.1518C5.41534 23.3147 5.96645 25.5431 7.5 26.4058C7.95527 26.6693 8.45847 26.7891 9.03355 26.7891C10.7348 26.7891 12.8674 25.5431 15 23.4585C17.1565 25.5431 19.2891 26.7891 20.9665 26.7891C21.5415 26.7891 22.0447 26.6693 22.5 26.4058C24.0335 25.5192 24.5847 23.2907 24.0815 20.1518C23.9856 19.6006 23.8658 19.0256 23.722 18.4505C24.2971 18.2827 24.8482 18.115 25.3754 17.8994C28.3706 16.7492 30 15.1677 30 13.3946C30 11.6214 28.3706 10.0399 25.3754 8.88978V8.88978ZM21.8291 1.58147C22.8115 2.15655 23.147 3.92971 22.7396 6.44569C22.6677 6.94888 22.5479 7.47604 22.4042 8.02716C21.1581 7.73962 19.8403 7.54792 18.4505 7.42811C17.6358 6.27795 16.7971 5.2476 15.9585 4.3131C17.7316 2.5639 19.5288 1.36581 20.9904 1.36581C21.3019 1.36581 21.5895 1.4377 21.8291 1.58147V1.58147ZM19.1454 15.7907C18.7141 16.5575 18.2109 17.3243 17.6837 18.0911C16.7971 18.1629 15.9105 18.1869 15 18.1869C14.0655 18.1869 13.1789 18.1629 12.3163 18.0911C11.7891 17.3243 11.3099 16.5575 10.8786 15.7907C10.4233 15 9.99201 14.1853 9.60863 13.3946C9.99201 12.6038 10.4233 11.7891 10.8786 10.9984C11.3099 10.2316 11.8131 9.46486 12.3403 8.69808C13.2268 8.6262 14.1134 8.60224 15.024 8.60224C15.9585 8.60224 16.845 8.6262 17.7077 8.69808C18.2348 9.46486 18.7141 10.2316 19.1454 10.9984C19.6006 11.7891 20.0319 12.6038 20.4153 13.3946C20.008 14.1853 19.6006 14.976 19.1454 15.7907ZM21.1342 15C21.4936 15.8387 21.7812 16.6534 22.0447 17.4681C21.23 17.6597 20.3674 17.8035 19.4569 17.9233C19.7444 17.4681 20.0559 16.9888 20.3195 16.4856C20.607 15.9824 20.8706 15.4792 21.1342 15ZM15 21.4936C14.4249 20.8706 13.8738 20.1997 13.3466 19.5048C13.8978 19.5288 14.4489 19.5527 15 19.5527C15.5511 19.5527 16.1022 19.5288 16.6534 19.5048C16.1262 20.1997 15.5751 20.8706 15 21.4936ZM10.5431 17.8994C9.63259 17.7796 8.76997 17.6358 7.95527 17.4441C8.21885 16.6534 8.50639 15.8147 8.86581 14.976C9.12939 15.4553 9.39297 15.9585 9.68051 16.4377C9.96805 16.9649 10.2556 17.4201 10.5431 17.8994V17.8994ZM8.86581 11.7891C8.50639 10.9505 8.21885 10.1358 7.95527 9.32109C8.76997 9.12939 9.63259 8.98562 10.5431 8.86581C10.2556 9.32109 9.94409 9.80032 9.68051 10.3035C9.39297 10.8067 9.12939 11.3099 8.86581 11.7891V11.7891ZM15 5.29553C15.5751 5.91853 16.1262 6.58946 16.6534 7.28435C16.1022 7.26038 15.5511 7.23642 15 7.23642C14.4489 7.23642 13.8978 7.26038 13.3466 7.28435C13.8738 6.58946 14.4249 5.91853 15 5.29553ZM20.3195 10.3275L19.4569 8.88978C20.3674 9.00958 21.23 9.15335 22.0447 9.34505C21.7812 10.1358 21.4936 10.9744 21.1342 11.8131C20.8706 11.3099 20.607 10.8067 20.3195 10.3275ZM7.26038 6.44569C6.85304 3.92971 7.1885 2.15655 8.17093 1.58147C8.41054 1.4377 8.69808 1.36581 9.00958 1.36581C10.4473 1.36581 12.2444 2.53994 14.0415 4.3131C13.2029 5.22364 12.3642 6.27795 11.5495 7.42811C10.1597 7.54792 8.84185 7.76358 7.59585 8.02716C7.45208 7.47604 7.35623 6.94888 7.26038 6.44569V6.44569ZM1.34185 13.3946C1.34185 12.2684 2.70767 11.0703 5.10383 10.1837C5.58307 9.99201 6.11022 9.82428 6.63738 9.68051C7.02077 10.8786 7.5 12.1486 8.07508 13.4185C7.5 14.6885 6.99681 15.9345 6.63738 17.1326C3.33067 16.1741 1.34185 14.7364 1.34185 13.3946ZM8.17093 25.2077C7.1885 24.6326 6.85304 22.8594 7.26038 20.3435C7.33227 19.8403 7.45208 19.3131 7.59585 18.762C8.84185 19.0495 10.1597 19.2412 11.5495 19.361C12.3642 20.5112 13.2029 21.5415 14.0415 22.476C12.2684 24.2252 10.4712 25.4233 9.00958 25.4233C8.69808 25.4233 8.41054 25.3514 8.17093 25.2077ZM22.7396 20.3435C23.147 22.8594 22.8115 24.6326 21.8291 25.2077C21.5895 25.3514 21.3019 25.4233 20.9904 25.4233C19.5527 25.4233 17.7556 24.2492 15.9585 22.476C16.7971 21.5655 17.6358 20.5112 18.4505 19.361C19.8403 19.2412 21.1581 19.0256 22.4042 18.762C22.5479 19.3131 22.6438 19.8403 22.7396 20.3435V20.3435ZM24.8962 16.6054C24.4169 16.7971 23.8898 16.9649 23.3626 17.1086C22.9792 15.9105 22.5 14.6406 21.9249 13.3706C22.5 12.1006 23.0032 10.8546 23.3626 9.65655C26.6693 10.615 28.6581 12.0527 28.6581 13.3946C28.6581 14.5208 27.2684 15.7189 24.8962 16.6054Z" fill="#61DAFB"/>
</svg>
