<svg width="30" height="22" viewBox="0 0 30 22" fill="none" xmlns="http://www.w3.org/2000/svg">
<path fill-rule="evenodd" clip-rule="evenodd" d="M0 9.17373C0 9.33844 0.0494608 9.44715 0.077178 9.55281C0.257817 10.24 0.646097 10.8297 1.10677 11.3676C1.76291 12.1342 2.56647 12.7513 3.38962 13.3316C4.10357 13.8349 4.8321 14.3269 5.54893 14.8264C5.67198 14.9121 5.78835 15.0108 5.92191 15.116C5.80698 15.1769 5.71141 15.2305 5.61201 15.28C4.66604 15.7504 3.75591 16.2778 2.91699 16.9167C2.41139 17.3018 1.92252 17.7111 1.57725 18.246C1.02171 19.1063 0.825063 20.0229 1.23915 21.0015C1.36005 21.2873 1.54451 21.5342 1.80472 21.7167C1.88907 21.7758 1.98369 21.8344 2.08237 21.8573C2.33517 21.9157 2.59275 21.9538 2.84865 22L3.57336 21.9995C4.37477 21.9295 5.10426 21.6603 5.7635 21.2142C6.79381 20.517 7.48793 19.5822 7.78637 18.3824C8.00333 17.5104 8.01217 16.6374 7.7565 15.7694C7.73203 15.689 7.70381 15.6097 7.67192 15.5318C7.64086 15.4538 7.6043 15.3779 7.56129 15.2807L9.20425 14.3543L9.22886 14.3749C9.19899 14.4707 9.16721 14.5663 9.14021 14.6631C8.945 15.3622 8.81525 16.0735 8.86184 16.7991C8.91154 17.5722 9.13161 18.2959 9.59324 18.9419C9.96647 19.4643 10.8558 19.4838 11.2524 18.9594C11.3932 18.7732 11.5296 18.5785 11.6321 18.3707C11.9 17.8283 12.148 17.2763 12.4039 16.7281L12.4486 16.6278C12.4302 16.8874 12.4087 17.1154 12.3989 17.3435C12.3836 17.6999 12.4049 18.0541 12.5291 18.3932C12.6354 18.6832 12.8163 18.8999 13.1551 18.9381C13.3869 18.9641 13.5716 18.8601 13.742 18.7282C14.0059 18.5237 14.2247 18.2687 14.385 17.9787C14.8392 17.1608 15.3056 16.3478 15.7173 15.5093C16.1627 14.6024 16.5522 13.669 16.9658 12.7466L17.0341 12.5831C17.1318 12.9596 17.1999 13.3283 17.3254 13.6774C17.4711 14.0825 17.6515 14.478 17.8479 14.8625C17.9409 15.044 17.9301 15.1619 17.8013 15.3142C17.2623 15.9514 16.7326 16.5964 16.2024 17.2407C16.085 17.3829 15.9682 17.5277 15.8705 17.683C15.8112 17.7811 15.7722 17.8897 15.7558 18.0026C15.7393 18.1065 15.7646 18.2127 15.8262 18.2987C15.8878 18.3848 15.981 18.4442 16.0862 18.4644C16.2987 18.5092 16.5165 18.5245 16.7333 18.5096C17.4733 18.4562 18.1452 18.2015 18.7392 17.77C19.5088 17.2109 19.7559 16.4481 19.5695 15.544C19.5191 15.2987 19.43 15.0602 19.3432 14.8238C19.3043 14.7172 19.3017 14.6425 19.3726 14.5431C19.9879 13.6816 20.5136 12.7677 21.0024 11.8327C21.0218 11.7959 21.0416 11.7591 21.0756 11.7197C21.234 12.528 21.4724 13.307 21.8997 14.0139C21.6817 14.2198 21.466 14.4065 21.2708 14.6122C20.8409 15.0653 20.4682 15.5573 20.2737 16.1574C20.19 16.416 20.1258 16.6789 20.163 16.9551C20.2209 17.3841 20.5793 17.6629 21.0096 17.5652C21.9305 17.3562 22.7254 16.9307 23.3063 16.177C23.6972 15.6696 23.7328 15.1035 23.5691 14.5106C23.5242 14.3494 23.4709 14.1908 23.4136 14.0059C23.6408 13.9368 23.8623 13.8538 24.0915 13.8025C25.2812 13.5364 26.4579 13.5828 27.6044 14.004C28.2737 14.25 28.8144 14.6617 29.135 15.3092C29.5267 16.1009 29.3102 16.852 28.5491 17.3525C28.4782 17.3991 28.3969 17.4359 28.3382 17.4942C28.3193 17.5156 28.3053 17.5406 28.2968 17.5676C28.2884 17.5947 28.2858 17.6231 28.2892 17.6512C28.2942 17.68 28.3719 17.7161 28.4165 17.7156C28.6667 17.7137 28.8696 17.5851 29.0643 17.453C29.5522 17.1219 29.9082 16.6765 29.9849 16.0901L30 16.0461L29.9816 15.6642C29.9742 15.6422 29.9871 15.6204 29.9854 15.6037C29.8817 14.7498 29.4165 14.0874 28.7398 13.5683C27.9561 12.9673 27.0307 12.7199 26.052 12.6808C25.2582 12.6473 24.4655 12.7669 23.7187 13.0329C23.5044 13.109 23.292 13.1992 23.0764 13.2843C23.0475 13.233 23.0165 13.1838 22.9909 13.1329C22.7696 12.6887 22.5016 12.2642 22.4423 11.7549C22.4002 11.3931 22.3486 11.0319 22.4363 10.6741C22.5207 10.3299 22.6306 9.99163 22.734 9.65215C22.7873 9.47737 22.7498 9.37944 22.5797 9.30072C22.5204 9.27173 22.4571 9.25137 22.3919 9.24027C21.9737 9.18076 21.5613 9.21473 21.1563 9.33024C21.013 9.37124 20.9088 9.44996 20.877 9.60553C20.8588 9.69479 20.8218 9.7803 20.796 9.86839C20.6901 10.2346 20.6151 10.6078 20.444 10.9567C20.0154 11.8317 19.526 12.6737 19.0252 13.5097C18.971 13.5999 18.9139 13.6884 18.8455 13.7979C18.6697 13.4371 18.4821 13.1133 18.4252 12.7337C18.3609 12.3045 18.3103 11.876 18.4192 11.4501C18.5002 11.1324 18.6061 10.8205 18.7036 10.5071C18.7497 10.3581 18.7284 10.2798 18.5908 10.2013C18.5213 10.1617 18.4427 10.1266 18.3643 10.1151C17.9355 10.0511 17.4974 10.0862 17.085 10.2177C16.9553 10.259 16.8872 10.3412 16.8475 10.4724C16.7309 10.8594 16.6315 11.2558 16.4678 11.6239C15.805 13.114 15.1231 14.5963 14.4418 16.0784C14.2997 16.3879 14.1331 16.6866 13.9728 16.9879C13.9322 17.0643 13.8729 17.1315 13.8223 17.2032C13.7816 17.1561 13.7659 17.1238 13.7661 17.0915C13.7673 16.901 13.7441 16.7049 13.7812 16.5207C13.8949 15.9638 14.0206 15.4093 14.1582 14.8575C14.2705 14.4016 14.4012 13.9499 14.5257 13.497C14.5675 13.3454 14.5682 13.2037 14.4571 13.0763C14.2705 12.8628 13.8806 12.816 13.6493 12.9804L13.547 13.0371L13.5668 12.8755C13.6156 12.529 13.6254 12.1836 13.5284 11.8423C13.4075 11.4168 13.0978 11.172 12.6476 11.1856C12.4378 11.1919 12.2175 11.227 12.0233 11.302C11.2063 11.6159 10.5782 12.1719 10.0434 12.8408C9.99383 12.9029 9.9324 12.9549 9.86253 12.994C9.17127 13.3698 8.47787 13.7409 7.7847 14.1134L7.01316 14.5279C6.80623 14.3344 6.61819 14.1336 6.40481 13.9633C5.75322 13.4422 5.09112 12.934 4.43498 12.4188C3.8534 11.9622 3.28998 11.4866 2.85893 10.8819C2.53827 10.4321 2.33159 9.93985 2.31175 9.38366C2.28667 8.67494 2.49168 8.02737 2.85965 7.42455C3.33036 6.65328 3.97239 6.03429 4.67823 5.47364C5.42492 4.8809 6.23254 4.37765 7.06955 3.91821C8.2406 3.27556 9.4451 2.70672 10.7366 2.33115C12.0608 1.94599 13.4044 1.72552 14.7902 1.87921C15.335 1.93966 15.864 2.06196 16.3498 2.32319C16.7218 2.52303 17.0269 2.78473 17.1689 3.1938C17.3089 3.5963 17.3046 4.0042 17.2076 4.41303C17.0104 5.241 16.5481 5.92347 15.9663 6.53332C15.0119 7.53302 13.8478 8.21363 12.5372 8.66322C11.7837 8.92207 10.9997 9.08605 10.204 9.15124C9.55191 9.20489 8.91345 9.1482 8.29603 8.92586C7.8872 8.77849 7.53118 8.55311 7.24493 8.22604C7.1938 8.16747 7.12833 8.10398 7.03299 8.1588C6.93956 8.21269 6.92308 8.29985 6.95438 8.38817C7.00671 8.53483 7.05497 8.68759 7.13645 8.81879C7.34122 9.14796 7.6399 9.3867 7.96868 9.59147C8.6002 9.9853 9.30604 10.1177 10.0379 10.1484C11.1485 10.1955 12.2321 10.0329 13.3004 9.74071C14.8256 9.32368 16.1517 8.58708 17.2152 7.42502C18.1007 6.45741 18.7332 5.3654 18.8687 4.04684C18.9349 3.40325 18.8644 2.77278 18.5571 2.18566C18.2238 1.54957 17.6938 1.07655 17.0601 0.750655C16.1374 0.276224 15.1415 0 14.1135 0H13.0837C11.8388 0 10.6353 0.34979 9.46541 0.767055C8.57989 1.08311 7.71158 1.45609 6.8686 1.86891C5.03281 2.76833 3.32319 3.85285 1.91894 5.34408C1.21932 6.08701 0.626981 6.90677 0.286251 7.87204C0.183412 8.16022 0.0948214 8.45311 0.0207879 8.74968L0 9.17373ZM6.67267 17.187C6.5931 18.2317 6.1102 19.0787 5.32098 19.7647C4.87703 20.1503 4.36784 20.4249 3.77479 20.5214C3.55974 20.5563 3.33968 20.5648 3.13108 20.4774C2.8336 20.3527 2.76694 20.0938 2.7612 19.8181C2.75236 19.3786 2.90935 18.9812 3.12463 18.6031C3.40563 18.1101 3.81756 17.7343 4.25745 17.3834C4.95038 16.8302 5.70209 16.3621 6.47196 15.9203L6.53002 15.8968C6.64901 16.3279 6.70564 16.7536 6.67267 17.187ZM12.6839 12.6468C12.6278 12.9804 12.5575 13.3143 12.4581 13.6376C12.1145 14.7568 11.6732 15.8413 11.1961 16.9113C11.1079 17.1093 10.9796 17.2899 10.868 17.4776C10.849 17.5064 10.8263 17.5327 10.8004 17.5558C10.6623 17.6896 10.5313 17.6826 10.4616 17.5075C10.3803 17.3042 10.3304 17.0865 10.2874 16.8712C10.2585 16.7267 10.2654 16.5749 10.2563 16.4268C10.2656 15.3739 10.5932 14.4171 11.149 13.5263C11.3781 13.159 11.6276 12.8089 12.0087 12.5765C12.1273 12.5042 12.2555 12.4486 12.3898 12.4111C12.5929 12.3551 12.7176 12.4472 12.6839 12.6468ZM16.7851 17.7702L18.2592 16.0826C18.3206 16.7093 17.2341 17.9604 16.7851 17.7702ZM21.493 16.6346C21.3888 16.6932 21.2753 16.7353 21.1685 16.7895C21.0708 16.8391 21.0385 16.789 21.0356 16.7065C21.0342 16.6494 21.0417 16.5925 21.0579 16.5376C21.2569 15.8493 21.6232 15.2617 22.1682 14.7837L22.2065 14.7645C22.4657 15.4756 22.1661 16.2565 21.493 16.6346Z" fill="#CB6699"/>
</svg>
