<svg width="43" height="13" viewBox="0 0 43 13" fill="none" xmlns="http://www.w3.org/2000/svg">
<path d="M1.64438 4.56308L1.64137 4.5701L1.63858 4.57721C1.38033 5.23457 1.25195 5.92608 1.25195 6.64804C1.25195 7.38925 1.3796 8.09166 1.63858 8.75087L1.64259 8.76108L1.64705 8.77111C1.92684 9.40065 2.30242 9.95361 2.7744 10.4256C3.25101 10.9022 3.81982 11.2686 4.47403 11.5266C5.13469 11.8086 5.8397 11.948 6.58395 11.948C7.32681 11.948 8.02264 11.8091 8.66494 11.5254C9.31588 11.2682 9.88221 10.9037 10.3572 10.4299C10.8514 9.95813 11.2396 9.4039 11.5209 8.77111L11.5209 8.77113L11.5235 8.765C11.8075 8.10231 11.948 7.39494 11.948 6.64804C11.948 5.92022 11.8067 5.22377 11.5235 4.56308C11.243 3.90864 10.8546 3.34102 10.3572 2.86617C9.8838 2.39394 9.31997 2.0199 8.67196 1.74177C8.02772 1.45598 7.32952 1.31604 6.58395 1.31604C5.83705 1.31604 5.12969 1.45646 4.46699 1.74047C3.81573 2.01958 3.24941 2.39548 2.7744 2.87049C2.29939 3.3455 1.92349 3.91182 1.64438 4.56308ZM16.8319 4.56308L16.8289 4.5701L16.8261 4.57721C16.5678 5.23457 16.4395 5.92608 16.4395 6.64804C16.4395 7.38925 16.5671 8.09166 16.8261 8.75087L16.8301 8.76108L16.8345 8.77111C17.1143 9.40065 17.4899 9.95361 17.9619 10.4256C18.4385 10.9022 19.0073 11.2686 19.6615 11.5266C20.3222 11.8086 21.0272 11.948 21.7715 11.948C22.5143 11.948 23.2101 11.8091 23.8524 11.5254C24.5034 11.2682 25.0697 10.9037 25.5447 10.4299C26.0389 9.95813 26.4271 9.4039 26.7084 8.77111L26.7084 8.77113L26.711 8.765C26.995 8.10231 27.1355 7.39494 27.1355 6.64804C27.1355 5.92022 26.9942 5.22377 26.711 4.56308C26.4306 3.90865 26.0421 3.34104 25.5447 2.86619C25.0713 2.39394 24.5075 2.0199 23.8594 1.74177C23.2152 1.45598 22.517 1.31604 21.7715 1.31604C21.0246 1.31604 20.3172 1.45646 19.6545 1.74047C19.0032 2.01958 18.4369 2.39548 17.9619 2.87049C17.4869 3.3455 17.111 3.91182 16.8319 4.56308ZM32.0194 4.56308L32.0164 4.5701L32.0136 4.57721C31.7553 5.23457 31.627 5.92608 31.627 6.64804C31.627 7.38925 31.7546 8.09166 32.0136 8.75087L32.0176 8.76108L32.022 8.77111C32.3018 9.40065 32.6774 9.95361 33.1494 10.4256C33.626 10.9022 34.1948 11.2686 34.849 11.5266C35.5097 11.8086 36.2147 11.948 36.959 11.948C37.7018 11.948 38.3976 11.8091 39.0399 11.5254C39.6909 11.2682 40.2572 10.9036 40.7322 10.4299C41.2264 9.9581 41.6146 9.40388 41.8959 8.77111L41.8959 8.77113L41.8985 8.765C42.1825 8.10231 42.323 7.39494 42.323 6.64804C42.323 5.92022 42.1817 5.22377 41.8985 4.56308C41.618 3.90863 41.2296 3.34101 40.7322 2.86615C40.2588 2.39391 39.6949 2.01987 39.0469 1.74174C38.4027 1.45597 37.7045 1.31604 36.959 1.31604C36.2121 1.31604 35.5047 1.45646 34.842 1.74047C34.1907 2.01958 33.6244 2.39548 33.1494 2.87049C32.6744 3.3455 32.2985 3.91182 32.0194 4.56308Z" fill="#DEDEDE" stroke="#DEDEDE"/>
</svg>
