<svg width="30" height="30" viewBox="0 0 30 30" fill="none" xmlns="http://www.w3.org/2000/svg">
<circle cx="15" cy="15" r="15" fill="#C4C4C4"/>
<circle cx="15" cy="15" r="15" fill="url(#paint0_linear_115_14)"/>
<path fill-rule="evenodd" clip-rule="evenodd" d="M20.311 16.5844C20.0497 16.4543 18.7652 15.8252 18.5257 15.7385C18.2862 15.6517 18.1121 15.6083 17.938 15.8686C17.7637 16.1289 17.2631 16.7146 17.1107 16.8881C16.9583 17.0616 16.8059 17.0833 16.5446 16.9531C16.2833 16.823 15.4415 16.5485 14.4436 15.6626C13.667 14.9732 13.1426 14.1217 12.9902 13.8614C12.8378 13.6011 12.974 13.4604 13.1048 13.3307C13.2223 13.2143 13.366 13.0271 13.4967 12.8752C13.6273 12.7234 13.6708 12.6149 13.7579 12.4414C13.845 12.2679 13.8015 12.116 13.7361 11.9859C13.6708 11.8557 13.1483 10.576 12.9306 10.0554C12.7186 9.54838 12.5032 9.61699 12.3428 9.60901C12.1906 9.60148 12.0163 9.59988 11.8421 9.59988C11.6679 9.59988 11.3849 9.66496 11.1454 9.92521C10.9059 10.1855 10.231 10.8146 10.231 12.0944C10.231 13.3741 11.1671 14.6105 11.2978 14.7841C11.4284 14.9576 13.1401 17.5839 15.7609 18.7102C16.3842 18.9781 16.8708 19.138 17.2503 19.2579C17.8761 19.4557 18.4457 19.4278 18.8959 19.3609C19.3978 19.2862 20.4416 18.7318 20.6594 18.1245C20.877 17.5172 20.877 16.9965 20.8117 16.8881C20.7464 16.7796 20.5723 16.7146 20.311 16.5844ZM15.5439 23.0621H15.5404C13.9809 23.0614 12.4514 22.6446 11.1171 21.8565L10.7998 21.669L7.51051 22.5278L8.3885 19.3361L8.18179 19.009C7.31188 17.6319 6.85246 16.0402 6.85309 14.406C6.85498 9.63724 10.7537 5.75748 15.5474 5.75748C17.8687 5.75839 20.0507 6.65926 21.6915 8.29406C23.3323 9.92886 24.2355 12.102 24.2346 14.413C24.2326 19.1821 20.334 23.0621 15.5439 23.0621ZM22.9403 7.05178C20.9663 5.08487 18.3409 4.00114 15.5439 4C9.78062 4 5.09 8.66781 5.08771 14.4053C5.08697 16.2393 5.56839 18.0297 6.48339 19.6076L5 25L10.5429 23.553C12.0702 24.382 13.7896 24.8189 15.5397 24.8196H15.544C21.3067 24.8196 25.9977 20.1512 26 14.4136C26.0011 11.6331 24.9146 9.01869 22.9403 7.05178Z" fill="white"/>
<defs>
<linearGradient id="paint0_linear_115_14" x1="15" y1="30" x2="15" y2="5.72203e-05" gradientUnits="userSpaceOnUse">
<stop stop-color="#25CF43"/>
<stop offset="1" stop-color="#61FD7D"/>
</linearGradient>
</defs>
</svg>
